<?xml version="1.0" encoding="utf-8"?>
<!-- Generator: Adobe Illustrator 21.0.0, SVG Export Plug-In . SVG Version: 6.00 Build 0)  -->
<svg version="1.1" id="Livello_1" xmlns="http://www.w3.org/2000/svg" xmlns:xlink="http://www.w3.org/1999/xlink" x="0px" y="0px"
	 viewBox="0 0 509.8 197.8" style="enable-background:new 0 0 509.8 197.8;" xml:space="preserve">
<style type="text/css">
	.st0{fill:#FFFFFF;}
</style>
<g>
	<polygon class="st0" points="63.3,179.8 63.3,197.8 58,197.8 58,179.8 51.2,179.8 51.2,175 70.2,175 70.2,179.8 	"/>
	<g>
		<path class="st0" d="M87.6,198.2c-7.1,0-11.6-5.1-11.6-11.8s4.7-11.8,11.8-11.8c7,0,11.6,5.1,11.6,11.8
			C99.4,193.1,94.6,198.2,87.6,198.2 M87.6,179.3c-3.6,0-6,3-6,7.1s2.4,7.1,6,7.1c3.6,0,6-3,6-7.1C93.7,182.3,91.3,179.3,87.6,179.3
			"/>
		<path class="st0" d="M119.5,197.8l-3.9-7.4c-0.3,0-0.6,0-0.9,0c-0.8,0-1.2,0-2-0.1v7.5h-5.3v-22.6c1.9-0.2,4-0.4,6.7-0.4
			c7.1,0,9.9,3.4,9.9,7.6c0,2.7-1.5,5.1-3.9,6.6l5.4,8.8L119.5,197.8L119.5,197.8z M114.8,179.5c-0.8,0-1.3,0-2.1,0.2v6.3
			c0.7,0.1,1.1,0.1,1.7,0.1c2.5,0,4.1-1.2,4.1-3.5C118.6,180.7,117.1,179.5,114.8,179.5"/>
		<rect x="132.5" y="175" class="st0" width="5.3" height="22.8"/>
		<polygon class="st0" points="166,198.2 152.2,185.9 152.2,197.8 146.9,197.8 146.9,174.7 147.6,174.5 161.2,186.8 161.2,175
			166.5,175 166.5,198.1 		"/>
		<path class="st0" d="M186.2,198.2c-7.1,0-11.6-5.1-11.6-11.8s4.7-11.8,11.8-11.8c7,0,11.6,5.1,11.6,11.8
			C198,193.1,193.2,198.2,186.2,198.2 M186.3,179.3c-3.6,0-6,3-6,7.1s2.4,7.1,6,7.1s6-3,6-7.1S189.9,179.3,186.3,179.3"/>
		<path class="st0" d="M204.9,202.1l-0.4-0.7c1.3-1.2,1.9-2,2.3-3.4c-1.5-0.1-2.5-1.2-2.5-2.5s1-2.3,2.3-2.3c1.7,0,2.6,1.3,2.6,3
			C209.2,198.5,207.3,201.1,204.9,202.1"/>
		<rect x="222.1" y="175" class="st0" width="5.3" height="22.8"/>
		<polygon class="st0" points="246.5,179.8 246.5,197.8 241.2,197.8 241.2,179.8 234.3,179.8 234.3,175 253.3,175 253.3,179.8 		"/>
		<path class="st0" d="M272.1,197.8l-1.7-4.1h-7.9l-1.7,4.1h-5.4l10.8-23h0.7l10.8,23H272.1z M266.5,184.1l-2.3,5.5h4.5L266.5,184.1
			z"/>
		<polygon class="st0" points="284,197.8 284,175 289.3,175 289.3,193 298.5,193 298.5,197.8 		"/>
		<rect x="305.4" y="175" class="st0" width="5.3" height="22.8"/>
		<path class="st0" d="M333.9,197.8l-1.7-4.1h-7.9l-1.7,4.1h-5.4l10.8-23h0.7l10.7,23H333.9z M328.2,184.1l-2.3,5.5h4.5L328.2,184.1
			z"/>
		<path class="st0" d="M346.5,202.1l-0.4-0.7c1.3-1.2,1.9-2,2.3-3.4c-1.5-0.1-2.5-1.2-2.5-2.5s1-2.3,2.3-2.3c1.7,0,2.6,1.3,2.6,3
			C350.8,198.5,348.9,201.1,346.5,202.1"/>
		<polygon class="st0" points="364.8,197.8 364.8,180.4 360.9,181.9 359.4,177.8 368.1,174.6 370.1,174.6 370.1,197.8 		"/>
		<path class="st0" d="M386.4,198.2c-5.2,0-8.4-2.9-8.4-6.4c0-2.3,1.1-4.6,3.7-5.5c-2.1-1-3.1-3-3.1-5.3c0-3.6,3-6.4,7.8-6.4
			s7.8,2.9,7.8,6.4c0,2.3-1.3,4.4-3.1,5.3c2.8,1,3.8,3.2,3.8,5.5C394.9,195.3,391.6,198.2,386.4,198.2 M386.4,188.2
			c-1.6,0-2.8,1-2.8,2.6c0,1.5,1.2,2.7,2.8,2.7c1.8,0,2.9-1.2,2.9-2.7C389.4,189.2,388.2,188.2,386.4,188.2 M386.4,179.2
			c-1.7,0-2.7,1.2-2.7,2.8s1.2,2.5,2.7,2.5s2.6-0.9,2.6-2.5C389.1,180.4,388.2,179.2,386.4,179.2"/>
		<path class="st0" d="M410.1,174.6c5.2,0,8.6,4,8.6,8.8c0,8.4-6,12.4-13.4,15.5l-2.4-4.1c3.3-1.2,6.9-3.1,9.2-5.5
			c-1,0.5-2.1,0.8-3.6,0.8c-4.3,0-7.1-3.1-7.1-7.4C401.4,178.9,404.3,174.6,410.1,174.6 M410.1,186.2c1.8,0,3.2-1.6,3.2-3.6
			s-1.3-3.6-3.1-3.6c-2,0-3.3,1.7-3.3,3.5C406.9,184.7,408.1,186.2,410.1,186.2"/>
		<path class="st0" d="M431.3,198.2c-2.1,0-4.2-0.4-6.1-1l0.9-4.4c1.5,0.6,3.1,1,4.8,1c3.1,0,4.8-1.2,4.8-3c0-1.7-1.5-3.3-4.8-3.3
			c-1.1,0-3.2,0.2-4.5,0.6l-0.3-0.4V175h14.2v4.7h-8.9v3.5c0.9-0.1,1.5-0.1,2-0.1c5.4,0,7.9,3.1,7.9,7
			C441.2,194.7,437.6,198.2,431.3,198.2"/>
		<path class="st0" d="M57.1,129.4h27.7l3-13.2h13v13.2h27.8v-91H77.3L57.1,129.4z M100.7,60.4l0.1,32.5h-8.5L100.7,60.4z"/>
		<polygon class="st0" points="51.7,38.4 20.4,38.4 0,129.4 50.6,129.4 56.8,101.3 37.6,101.3 		"/>
		<polygon class="st0" points="181.9,38.4 167.6,103 167.6,38.4 139.2,38.4 139.2,129.4 190.4,129.4 210.7,38.4 		"/>
		<path class="st0" d="M489.5,38.4h-51.2v91h27.8v-13.2h13l3,13.2h27.7L489.5,38.4z M466.1,92.9l0.1-32.5l8.4,32.5H466.1z"/>
		<polygon class="st0" points="412.7,102.4 419.5,38.4 361.1,38.4 366.3,67.5 385.4,67.5 379.6,129.4 435.3,129.4 429.7,102.4 		"/>
		<polygon class="st0" points="349.5,102.4 356.2,38.4 297.8,38.4 303,67.5 322.2,67.5 316.4,129.4 372,129.4 366.5,102.4 		"/>
		<path class="st0" d="M229.9,0l-29.3,129.4h35.9l4.2-22.1h28.2l4.3,22.1H309L280,0L229.9,0L229.9,0z M245.5,78.9l9.4-49.6l9.7,49.6
			H245.5z"/>
	</g>
</g>
</svg>
